<svg width="4039" height="1424" viewBox="0 0 4039 1424" fill="none" xmlns="http://www.w3.org/2000/svg">
<path d="M1062.13 1269.4C620.289 1308.77 159.764 1246.77 95.2612 913.301C63.7064 748.914 141.357 574.597 244.226 466.25V408.394C58.917 565.343 -41.5104 763.934 16.3349 998.525C90.2245 1299.42 485.366 1469.81 1088.66 1413.23C1327.46 1390.88 1639.76 1316.73 1857.02 1201.48V1037.89C1659.84 1151.35 1333.77 1245.07 1062.13 1269.4ZM2226.09 404.485C2121.29 -89.6549 1127.79 -120.981 487.369 255.494V297.075C1127.06 -20.5236 2034.43 -18.5939 2117.04 436.6C2144.76 587.176 2056.93 744.049 1900.02 834.377V952.486C2088.77 885.626 2282.38 669.372 2226.09 404.485Z" fill="#0E7DC2"/>
<g filter="url(#filter0_d_0_1)">
<mask id="path-2-outside-1_0_1" maskUnits="userSpaceOnUse" x="240" y="592" width="3796" height="562" fill="black">
<rect fill="white" x="240" y="592" width="3796" height="562"/>
<path d="M241 706.6V593H1191.4V791.4L982.6 762.6V706.6H569V1039.4H982.6V963.4H813.8V849.8H1191.4V1153H360.2V706.6H241ZM1343.47 1153V969L1552.27 999.4V1039.4H1957.07V969L1343.47 872.2V593H2165.87V787.4L1957.07 755.4V706.6H1552.27V782.6L2165.87 879.4V1153H1343.47ZM2229.87 706.6V593H2491.48L2711.48 825.8L2910.68 593H3156.28L2815.48 991.4V1153H2606.68V981L2347.48 706.6H2229.87ZM3212.22 1153V969L3421.02 999.4V1039.4H3825.82V969L3212.22 872.2V593H4034.62V787.4L3825.82 755.4V706.6H3421.02V782.6L4034.62 879.4V1153H3212.22Z"/>
</mask>
<path d="M241 706.6V593H1191.4V791.4L982.6 762.6V706.6H569V1039.4H982.6V963.4H813.8V849.8H1191.4V1153H360.2V706.6H241ZM1343.47 1153V969L1552.27 999.4V1039.4H1957.07V969L1343.47 872.2V593H2165.87V787.4L1957.07 755.4V706.6H1552.27V782.6L2165.87 879.4V1153H1343.47ZM2229.87 706.6V593H2491.48L2711.48 825.8L2910.68 593H3156.28L2815.48 991.4V1153H2606.68V981L2347.48 706.6H2229.87ZM3212.22 1153V969L3421.02 999.4V1039.4H3825.82V969L3212.22 872.2V593H4034.62V787.4L3825.82 755.4V706.6H3421.02V782.6L4034.62 879.4V1153H3212.22Z" fill="white"/>
<path d="M241 706.6H240V707.6H241V706.6ZM241 593V592H240V593H241ZM1191.4 593H1192.4V592H1191.4V593ZM1191.4 791.4L1191.26 792.391L1192.4 792.547V791.4H1191.4ZM982.6 762.6H981.6V763.471L982.463 763.591L982.6 762.6ZM982.6 706.6H983.6V705.6H982.6V706.6ZM569 706.6V705.6H568V706.6H569ZM569 1039.4H568V1040.4H569V1039.4ZM982.6 1039.4V1040.4H983.6V1039.4H982.6ZM982.6 963.4H983.6V962.4H982.6V963.4ZM813.8 963.4H812.8V964.4H813.8V963.4ZM813.8 849.8V848.8H812.8V849.8H813.8ZM1191.4 849.8H1192.4V848.8H1191.4V849.8ZM1191.4 1153V1154H1192.4V1153H1191.4ZM360.2 1153H359.2V1154H360.2V1153ZM360.2 706.6H361.2V705.6H360.2V706.6ZM242 706.6V593H240V706.6H242ZM241 594H1191.4V592H241V594ZM1190.4 593V791.4H1192.4V593H1190.4ZM1191.54 790.409L982.737 761.609L982.463 763.591L1191.26 792.391L1191.54 790.409ZM983.6 762.6V706.6H981.6V762.6H983.6ZM982.6 705.6H569V707.6H982.6V705.6ZM568 706.6V1039.4H570V706.6H568ZM569 1040.4H982.6V1038.4H569V1040.4ZM983.6 1039.4V963.4H981.6V1039.4H983.6ZM982.6 962.4H813.8V964.4H982.6V962.4ZM814.8 963.4V849.8H812.8V963.4H814.8ZM813.8 850.8H1191.4V848.8H813.8V850.8ZM1190.4 849.8V1153H1192.4V849.8H1190.4ZM1191.4 1152H360.2V1154H1191.4V1152ZM361.2 1153V706.6H359.2V1153H361.2ZM360.2 705.6H241V707.6H360.2V705.6ZM1343.47 1153H1342.47V1154H1343.47V1153ZM1343.47 969L1343.61 968.01L1342.47 967.844V969H1343.47ZM1552.27 999.4H1553.27V998.535L1552.41 998.41L1552.27 999.4ZM1552.27 1039.4H1551.27V1040.4H1552.27V1039.4ZM1957.07 1039.4V1040.4H1958.07V1039.4H1957.07ZM1957.07 969H1958.07V968.145L1957.22 968.012L1957.07 969ZM1343.47 872.2H1342.47V873.055L1343.31 873.188L1343.47 872.2ZM1343.47 593V592H1342.47V593H1343.47ZM2165.87 593H2166.87V592H2165.87V593ZM2165.87 787.4L2165.72 788.388L2166.87 788.565V787.4H2165.87ZM1957.07 755.4H1956.07V756.258L1956.92 756.388L1957.07 755.4ZM1957.07 706.6H1958.07V705.6H1957.07V706.6ZM1552.27 706.6V705.6H1551.27V706.6H1552.27ZM1552.27 782.6H1551.27V783.455L1552.11 783.588L1552.27 782.6ZM2165.87 879.4H2166.87V878.545L2166.02 878.412L2165.87 879.4ZM2165.87 1153V1154H2166.87V1153H2165.87ZM1344.47 1153V969H1342.47V1153H1344.47ZM1343.32 969.99L1552.12 1000.39L1552.41 998.41L1343.61 968.01L1343.32 969.99ZM1551.27 999.4V1039.4H1553.27V999.4H1551.27ZM1552.27 1040.4H1957.07V1038.4H1552.27V1040.4ZM1958.07 1039.4V969H1956.07V1039.4H1958.07ZM1957.22 968.012L1343.62 871.212L1343.31 873.188L1956.91 969.988L1957.22 968.012ZM1344.47 872.2V593H1342.47V872.2H1344.47ZM1343.47 594H2165.87V592H1343.47V594ZM2164.87 593V787.4H2166.87V593H2164.87ZM2166.02 786.412L1957.22 754.412L1956.92 756.388L2165.72 788.388L2166.02 786.412ZM1958.07 755.4V706.6H1956.07V755.4H1958.07ZM1957.07 705.6H1552.27V707.6H1957.07V705.6ZM1551.27 706.6V782.6H1553.27V706.6H1551.27ZM1552.11 783.588L2165.71 880.388L2166.02 878.412L1552.42 781.612L1552.11 783.588ZM2164.87 879.4V1153H2166.87V879.4H2164.87ZM2165.87 1152H1343.47V1154H2165.87V1152ZM2229.88 706.6H2228.88V707.6H2229.88V706.6ZM2229.88 593V592H2228.88V593H2229.88ZM2491.48 593L2492.2 592.313L2491.91 592H2491.48V593ZM2711.48 825.8L2710.75 826.487L2711.51 827.295L2712.23 826.45L2711.48 825.8ZM2910.68 593V592H2910.21L2909.92 592.35L2910.68 593ZM3156.27 593L3157.03 593.65L3158.45 592H3156.27V593ZM2815.48 991.4L2814.72 990.75L2814.48 991.031V991.4H2815.48ZM2815.48 1153V1154H2816.48V1153H2815.48ZM2606.68 1153H2605.68V1154H2606.68V1153ZM2606.68 981H2607.68V980.602L2607.4 980.313L2606.68 981ZM2347.48 706.6L2348.2 705.913L2347.91 705.6H2347.48V706.6ZM2230.88 706.6V593H2228.88V706.6H2230.88ZM2229.88 594H2491.48V592H2229.88V594ZM2490.75 593.687L2710.75 826.487L2712.2 825.113L2492.2 592.313L2490.75 593.687ZM2712.23 826.45L2911.43 593.65L2909.92 592.35L2710.72 825.15L2712.23 826.45ZM2910.68 594H3156.27V592H2910.68V594ZM3155.52 592.35L2814.72 990.75L2816.23 992.05L3157.03 593.65L3155.52 592.35ZM2814.48 991.4V1153H2816.48V991.4H2814.48ZM2815.48 1152H2606.68V1154H2815.48V1152ZM2607.68 1153V981H2605.68V1153H2607.68ZM2607.4 980.313L2348.2 705.913L2346.75 707.287L2605.95 981.687L2607.4 980.313ZM2347.48 705.6H2229.88V707.6H2347.48V705.6ZM3212.22 1153H3211.22V1154H3212.22V1153ZM3212.22 969L3212.36 968.01L3211.22 967.844V969H3212.22ZM3421.02 999.4H3422.02V998.535L3421.16 998.41L3421.02 999.4ZM3421.02 1039.4H3420.02V1040.4H3421.02V1039.4ZM3825.82 1039.4V1040.4H3826.82V1039.4H3825.82ZM3825.82 969H3826.82V968.145L3825.97 968.012L3825.82 969ZM3212.22 872.2H3211.22V873.055L3212.06 873.188L3212.22 872.2ZM3212.22 593V592H3211.22V593H3212.22ZM4034.62 593H4035.62V592H4034.62V593ZM4034.62 787.4L4034.47 788.388L4035.62 788.565V787.4H4034.62ZM3825.82 755.4H3824.82V756.258L3825.67 756.388L3825.82 755.4ZM3825.82 706.6H3826.82V705.6H3825.82V706.6ZM3421.02 706.6V705.6H3420.02V706.6H3421.02ZM3421.02 782.6H3420.02V783.455L3420.86 783.588L3421.02 782.6ZM4034.62 879.4H4035.62V878.545L4034.77 878.412L4034.62 879.4ZM4034.62 1153V1154H4035.62V1153H4034.62ZM3213.22 1153V969H3211.22V1153H3213.22ZM3212.07 969.99L3420.87 1000.39L3421.16 998.41L3212.36 968.01L3212.07 969.99ZM3420.02 999.4V1039.4H3422.02V999.4H3420.02ZM3421.02 1040.4H3825.82V1038.4H3421.02V1040.4ZM3826.82 1039.4V969H3824.82V1039.4H3826.82ZM3825.97 968.012L3212.37 871.212L3212.06 873.188L3825.66 969.988L3825.97 968.012ZM3213.22 872.2V593H3211.22V872.2H3213.22ZM3212.22 594H4034.62V592H3212.22V594ZM4033.62 593V787.4H4035.62V593H4033.62ZM4034.77 786.412L3825.97 754.412L3825.67 756.388L4034.47 788.388L4034.77 786.412ZM3826.82 755.4V706.6H3824.82V755.4H3826.82ZM3825.82 705.6H3421.02V707.6H3825.82V705.6ZM3420.02 706.6V782.6H3422.02V706.6H3420.02ZM3420.86 783.588L4034.46 880.388L4034.77 878.412L3421.17 781.612L3420.86 783.588ZM4033.62 879.4V1153H4035.62V879.4H4033.62ZM4034.62 1152H3212.22V1154H4034.62V1152Z" fill="#0E7DC2" mask="url(#path-2-outside-1_0_1)"/>
</g>
<defs>
<filter id="filter0_d_0_1" x="237" y="593" width="3801.62" height="568" filterUnits="userSpaceOnUse" color-interpolation-filters="sRGB">
<feFlood flood-opacity="0" result="BackgroundImageFix"/>
<feColorMatrix in="SourceAlpha" type="matrix" values="0 0 0 0 0 0 0 0 0 0 0 0 0 0 0 0 0 0 127 0" result="hardAlpha"/>
<feOffset dy="4"/>
<feGaussianBlur stdDeviation="2"/>
<feComposite in2="hardAlpha" operator="out"/>
<feColorMatrix type="matrix" values="0 0 0 0 0 0 0 0 0 0 0 0 0 0 0 0 0 0 0.25 0"/>
<feBlend mode="normal" in2="BackgroundImageFix" result="effect1_dropShadow_0_1"/>
<feBlend mode="normal" in="SourceGraphic" in2="effect1_dropShadow_0_1" result="shape"/>
</filter>
</defs>
</svg>
