<svg width="55" height="55" viewBox="0 0 55 55" fill="none" xmlns="http://www.w3.org/2000/svg">
<path fill-rule="evenodd" clip-rule="evenodd" d="M39.941 32.3378C39.941 31.7236 44.8687 18.0742 45.4338 16.6141L48.547 7.9275C48.7751 7.19045 48.5926 7.26416 49.6982 7.26416C51.432 7.26416 52.6463 8.47853 52.6463 10.2124V52.6453H39.9375V32.3343L39.941 32.3378ZM19.1773 13.6168C19.1773 14.3855 19.7213 14.5258 20.3109 14.5258C21.0375 14.5258 21.8026 11.704 21.9992 11.1073L23.375 7.26416H46.7464L39.1864 28.5227C39.0109 29.0387 38.123 31.3586 38.123 31.657V52.6453H16.3379V26.4379C16.8398 26.5713 17.4646 27.2312 18.7211 27.2312H24.7333C26.1231 27.2312 27.2287 26.0378 27.2287 24.283C27.2287 23.0335 25.9792 21.7875 24.7333 21.7875H19.967V18.7235C19.967 15.6314 17.0469 12.7113 13.9548 12.7113H6.01221C2.92012 12.7113 0 15.6314 0 18.7235V31.9974C0 33.2469 1.24947 34.4928 2.49543 34.4928L3.62912 34.3805V52.6488C3.62561 53.6385 3.54136 54.4633 4.53813 54.4633C5.08565 54.4633 5.44363 54.1053 5.44363 53.5543V20.8785C5.44363 20.331 5.08565 19.973 4.53813 19.973C3.32376 19.973 3.62912 21.4716 3.62912 22.6965L3.62209 31.7658C3.4466 33.0644 1.81456 32.8643 1.81456 31.6605V19.4079C1.81456 16.5159 3.73791 14.5293 6.69313 14.5293C8.90076 14.5293 13.9408 14.238 15.5447 14.9821C16.0361 15.2102 16.738 15.7332 17.0679 16.1824C18.1454 17.6355 18.1525 18.2602 18.1525 20.6574C18.1525 24.0548 17.3066 23.6337 23.4873 23.6056C23.8874 23.6056 25.4141 23.4371 25.4141 24.5146C25.4141 24.9638 24.8982 25.4236 24.3928 25.4236H19.2861C17.9243 25.4236 16.8363 24.6339 16.4994 23.5564C16.0852 22.2368 16.896 19.9765 15.4254 19.9765C14.8779 19.9765 14.5199 20.3345 14.5199 20.882V53.786C14.5199 54.0597 14.927 54.4668 15.2008 54.4668H53.5484C54.0994 54.4668 54.4574 54.1088 54.4574 53.5578V9.65079C54.4574 7.55898 52.3515 5.45312 50.2597 5.45312H22.6906C21.7991 5.45312 21.6903 6.40076 21.4551 7.05708C21.1357 7.94856 19.1703 13.1641 19.1703 13.6238L19.1773 13.6168Z" fill="#000FF2"/>
<path fill-rule="evenodd" clip-rule="evenodd" d="M21.7886 18.9476C21.7886 20.2462 23.2557 20.383 23.6803 19.1371L26.5548 10.8927H40.9624L40.1516 13.1459C39.025 16.5679 37.3578 20.913 36.1259 24.4368C35.8592 25.2019 35.5679 25.9776 35.3046 26.6795C35.1467 27.0972 35.0695 27.4271 34.901 27.8623C34.736 28.2905 34.5992 28.5959 34.4939 29.0451C33.9077 29.0451 18.8404 28.9468 18.4367 29.0978C17.5839 29.4242 17.8787 30.8597 18.6087 30.8597H35.1748C35.7609 30.8597 35.9399 30.5403 36.1013 30.084L43.2296 9.98364C43.2296 9.43612 42.8717 9.07812 42.3206 9.07812H25.7546C25.3123 9.07812 25.0702 9.59757 24.9438 9.9696C24.7999 10.3908 24.649 10.7839 24.4946 11.2191L21.7851 18.9476H21.7886Z" fill="#000FF2"/>
<path fill-rule="evenodd" clip-rule="evenodd" d="M6.35944 5.67176C6.22958 5.0014 6.69289 3.71332 7.34921 3.03243C8.7847 1.53727 10.9713 1.42847 12.4033 2.80429C13.8949 4.23978 14.0072 6.42636 12.6279 7.85834C11.6381 8.89021 10.143 9.38508 8.66537 8.80597C7.75283 8.44798 6.73852 7.4126 6.5174 6.41583L6.35592 5.66825L6.35944 5.67176ZM4.54492 4.99087C4.54492 6.70714 4.82569 8.04787 6.10675 9.32893C9.55332 12.779 15.4357 10.1888 15.4357 5.67176V4.99087C15.4357 2.55861 12.8735 0 10.4448 0H9.53578C7.10703 0 4.54492 2.56212 4.54492 4.99087Z" fill="#000FF2"/>
<path fill-rule="evenodd" clip-rule="evenodd" d="M9.08301 35.1688V53.774C9.08301 54.6865 10.8976 54.6865 10.8976 53.774V35.1688C10.8976 34.2562 9.08301 34.2562 9.08301 35.1688Z" fill="#000FF2"/>
<path fill-rule="evenodd" clip-rule="evenodd" d="M29.0503 33.5829C29.0503 34.7692 30.4086 34.492 31.7739 34.492C32.9918 34.492 32.9918 32.6774 31.7739 32.6774C30.4086 32.6774 29.0503 32.3966 29.0503 33.5829Z" fill="#000FF2"/>
<path fill-rule="evenodd" clip-rule="evenodd" d="M19.9741 33.5829C19.9741 34.7692 21.3324 34.492 22.6977 34.492C23.9156 34.492 23.9156 32.6774 22.6977 32.6774C21.3324 32.6774 19.9741 32.3966 19.9741 33.5829Z" fill="#000FF2"/>
</svg>
