<svg width="10" height="16" viewBox="0 0 10 16" fill="none" xmlns="http://www.w3.org/2000/svg">
<path d="M3.07993 9.04002C3.01993 9.04002 1.69993 9.04002 1.09993 9.04002C0.779932 9.04002 0.679932 8.92002 0.679932 8.62002C0.679932 7.82002 0.679932 7.00002 0.679932 6.20002C0.679932 5.88002 0.799932 5.78002 1.09993 5.78002H3.07993C3.07993 5.72002 3.07993 4.56002 3.07993 4.02002C3.07993 3.22002 3.21993 2.46002 3.61993 1.76002C4.03993 1.04002 4.63993 0.560019 5.39993 0.280019C5.89992 0.100019 6.39992 0.0200195 6.93992 0.0200195H8.89992C9.17992 0.0200195 9.29992 0.14002 9.29992 0.42002V2.70002C9.29992 2.98002 9.17992 3.10002 8.89992 3.10002C8.35992 3.10002 7.81992 3.10002 7.27992 3.12002C6.73992 3.12002 6.45992 3.38002 6.45992 3.94002C6.43992 4.54002 6.45992 5.12002 6.45992 5.74002H8.77992C9.09992 5.74002 9.21992 5.86002 9.21992 6.18002V8.60002C9.21992 8.92002 9.11992 9.02002 8.77992 9.02002C8.05992 9.02002 6.51992 9.02002 6.45992 9.02002V15.54C6.45992 15.88 6.35992 16 5.99992 16C5.15993 16 4.33993 16 3.49993 16C3.19993 16 3.07993 15.88 3.07993 15.58C3.07993 13.48 3.07993 9.10002 3.07993 9.04002Z" fill="#AAA3BF"/>
</svg>
