<?xml version="1.0" encoding="utf-8"?><svg version="1.1" id="Layer_1" xmlns="http://www.w3.org/2000/svg" xmlns:xlink="http://www.w3.org/1999/xlink" x="0px" y="0px" viewBox="0 0 119.13 122.88" style="enable-background:new 0 0 119.13 122.88" xml:space="preserve"><style type="text/css">.st0{fill-rule:evenodd;clip-rule:evenodd;}</style><g><path class="st0" d="M60.6,42.6h35.84v5.48H60.6V42.6L60.6,42.6z M5.64,23.89H9.5v82.76c0,3.92,3.21,7.12,7.12,7.12h23.12 c3.92,0,7.12-3.21,7.12-7.12V23.89h5.87V0h47.33l1.61,0.67l10.61,10.47l0.68,0.67v12.07l0.52,0c3.11,0,5.64,2.54,5.64,5.65v87.7 c0,3.1-2.54,5.65-5.64,5.65H5.64c-3.11,0-5.64-2.54-5.64-5.65l0-87.7C0,26.43,2.54,23.89,5.64,23.89L5.64,23.89z M57.34,53.1h51.03 V17.6H95.78V4.61H57.34V53.1L57.34,53.1L57.34,53.1z M107.61,12.99l-7.22-7.12v7.12H107.61L107.61,12.99z M60.6,21.12h43.93v5.48 l-43.93,0V21.12L60.6,21.12L60.6,21.12z M60.6,31.88h22.91v5.48l-22.91,0V31.88L60.6,31.88L60.6,31.88z M14.6,14.6h13.94V3.98h4.31 V14.6h8.63v92.68H14.6V14.6L14.6,14.6z M67.12,66.59c2.86,0,5.19,2.32,5.19,5.18c0,2.86-2.32,5.18-5.19,5.18 c-2.86,0-5.19-2.32-5.19-5.18C61.93,68.91,64.25,66.59,67.12,66.59L67.12,66.59z M82.85,97.87c2.86,0,5.18,2.32,5.18,5.18 c0,2.86-2.32,5.18-5.18,5.18c-2.86,0-5.19-2.32-5.19-5.18C77.66,100.19,79.99,97.87,82.85,97.87L82.85,97.87z M98.58,82.23 c2.86,0,5.19,2.32,5.19,5.18c0,2.86-2.32,5.19-5.19,5.19c-2.86,0-5.18-2.32-5.18-5.19C93.4,84.55,95.72,82.23,98.58,82.23 L98.58,82.23z M82.85,82.23c2.86,0,5.18,2.32,5.18,5.18c0,2.86-2.32,5.19-5.18,5.19c-2.86,0-5.19-2.32-5.19-5.19 C77.66,84.55,79.99,82.23,82.85,82.23L82.85,82.23z M67.12,82.23c2.86,0,5.19,2.32,5.19,5.18c0,2.86-2.32,5.19-5.19,5.19 c-2.86,0-5.19-2.32-5.19-5.19C61.93,84.55,64.25,82.23,67.12,82.23L67.12,82.23z M98.58,66.59c2.86,0,5.19,2.32,5.19,5.18 c0,2.86-2.32,5.18-5.19,5.18c-2.86,0-5.18-2.32-5.18-5.18C93.4,68.91,95.72,66.59,98.58,66.59L98.58,66.59z M82.85,66.59 c2.86,0,5.18,2.32,5.18,5.18c0,2.86-2.32,5.18-5.18,5.18c-2.86,0-5.19-2.32-5.19-5.18C77.66,68.91,79.99,66.59,82.85,66.59 L82.85,66.59z"/></g></svg>