<svg width="20" height="20" viewBox="0 0 20 20" fill="none" xmlns="http://www.w3.org/2000/svg">
<path d="M14.9999 0H5.00012C2.25043 0 0.000244141 2.25019 0.000244141 4.99988V15.0001C0.000244141 17.7491 2.25043 20 5.00012 20H14.9999C17.7496 20 19.9998 17.7491 19.9998 15.0001V4.99988C19.9998 2.25019 17.7496 0 14.9999 0ZM18.333 15.0001C18.333 16.8376 16.8384 18.3333 14.9999 18.3333H5.00012C3.16242 18.3333 1.66695 16.8376 1.66695 15.0001V4.99988C1.66695 3.16193 3.16242 1.66671 5.00012 1.66671H14.9999C16.8384 1.66671 18.333 3.16193 18.333 4.99988V15.0001Z" fill="#AAA3BF"/>
<path d="M15.4172 5.83295C16.1075 5.83295 16.6672 5.27332 16.6672 4.58298C16.6672 3.89264 16.1075 3.33301 15.4172 3.33301C14.7269 3.33301 14.1672 3.89264 14.1672 4.58298C14.1672 5.27332 14.7269 5.83295 15.4172 5.83295Z" fill="#AAA3BF"/>
<path d="M9.99988 5C7.23793 5 5 7.23818 5 9.99988C5 12.7606 7.23793 15.0003 9.99988 15.0003C12.761 15.0003 14.9998 12.7606 14.9998 9.99988C14.9998 7.23818 12.761 5 9.99988 5ZM9.99988 13.3335C8.15915 13.3335 6.66671 11.8411 6.66671 9.99988C6.66671 8.15867 8.15915 6.66671 9.99988 6.66671C11.8406 6.66671 13.333 8.15867 13.333 9.99988C13.333 11.8411 11.8406 13.3335 9.99988 13.3335Z" fill="#AAA3BF"/>
</svg>
