<?xml version="1.0" standalone="no"?>
<!DOCTYPE svg PUBLIC "-//W3C//DTD SVG 20010904//EN"
 "http://www.w3.org/TR/2001/REC-SVG-20010904/DTD/svg10.dtd">
<svg version="1.0" xmlns="http://www.w3.org/2000/svg"
 width="225.000000pt" height="225.000000pt" viewBox="0 0 225.000000 225.000000"
 preserveAspectRatio="xMidYMid meet">

<g transform="translate(0.000000,225.000000) scale(0.100000,-0.100000)"
fill="#000FF2" stroke="none">
<path d="M931 2231 c-6 -10 -60 -162 -121 -337 l-110 -319 0 -440 0 -440 -111
-63 -110 -64 3 -86 3 -85 335 -194 c184 -106 342 -195 351 -198 14 -5 438 231
562 311 l37 24 0 81 0 80 -47 29 c-27 17 -124 74 -218 128 l-170 98 -3 282 -2
283 99 280 c55 154 98 285 95 292 -11 30 -127 109 -334 228 -123 71 -230 129
-237 129 -7 0 -17 -8 -22 -19z m228 -172 c97 -56 181 -107 188 -113 8 -8 -14
-85 -93 -310 l-104 -300 0 -488 c0 -268 -4 -488 -8 -488 -5 0 -89 46 -188 103
l-179 103 -3 498 -2 498 102 299 c57 164 105 299 107 299 2 0 83 -46 180 -101z
m279 -178 c11 -6 -7 -65 -82 -278 l-96 -269 0 -475 c0 -471 -2 -499 -32 -499
-4 0 -8 217 -8 482 l0 483 98 282 c53 156 99 283 102 283 3 0 11 -4 18 -9z
m218 -1394 c8 -7 -466 -279 -481 -275 -26 6 -583 333 -579 339 4 7 93 59 100
59 1 0 4 -19 6 -42 l3 -42 230 -133 c127 -73 236 -133 244 -133 23 0 138 68
145 86 3 8 6 87 6 174 l0 158 161 -93 c88 -51 162 -95 165 -98z m-801 -175
c236 -137 291 -172 293 -191 3 -17 0 -22 -10 -18 -7 2 -141 79 -298 170 -216
125 -286 170 -288 186 -2 11 0 21 5 21 4 0 139 -76 298 -168z m843 64 c-2 -2
-95 -56 -208 -121 -113 -64 -220 -126 -238 -137 l-34 -21 4 27 c3 23 34 44
238 161 210 121 235 133 238 114 2 -11 2 -22 0 -23z"/>
<path d="M993 2102 c-12 -8 -193 -518 -193 -546 0 -18 51 -52 208 -141 90 -50
105 -56 118 -44 8 8 55 133 106 278 69 199 89 268 81 280 -10 16 -279 179
-298 180 -5 0 -15 -3 -22 -7z m179 -162 c32 -17 60 -36 64 -41 4 -7 -126 -399
-145 -436 -4 -8 -39 7 -109 48 -56 33 -102 64 -102 69 0 6 115 346 145 428 4
11 15 8 48 -11 23 -13 68 -39 99 -57z"/>
<path d="M826 1404 c-18 -17 -19 -24 -8 -40 13 -21 242 -146 259 -142 11 2 19
14 21 28 2 22 -11 33 -122 98 -69 39 -127 72 -130 72 -2 0 -12 -7 -20 -16z"/>
</g>
</svg>
