<svg width="20" height="18" viewBox="0 0 20 18" fill="none" xmlns="http://www.w3.org/2000/svg">
<path d="M0.353259 8.64309L4.96166 10.3631L6.74539 16.0996C6.85953 16.467 7.30879 16.6028 7.60699 16.359L10.1758 14.2648C10.4451 14.0454 10.8286 14.0345 11.11 14.2388L15.7432 17.6026C16.0622 17.8344 16.5141 17.6596 16.5941 17.2742L19.9882 0.948088C20.0755 0.527021 19.6618 0.175755 19.2609 0.330821L0.347859 7.62689C-0.118874 7.80689 -0.114808 8.46769 0.353259 8.64309ZM6.45793 9.44749L15.4645 3.90035C15.6263 3.80095 15.7929 4.01982 15.6539 4.14875L8.22086 11.0581C7.95959 11.3013 7.79106 11.6268 7.74333 11.98L7.49013 13.8564C7.45659 14.107 7.10466 14.1318 7.03553 13.8894L6.06173 10.4677C5.95019 10.0774 6.11273 9.66055 6.45793 9.44749Z" fill="#AAA3BF"/>
</svg>
