<svg width="55" height="55" viewBox="0 0 42 68" fill="none" xmlns="http://www.w3.org/2000/svg">
<path d="M27.183 64.0279H25.8248V53.1406H23.575V64.0279H21.4411V53.1406H19.1878V64.0279H10.08V53.1406H6.92822V64.4947C6.92822 65.9758 8.13208 67.1796 9.61319 67.1796H27.6498C29.1309 67.1796 30.3348 65.9758 30.3348 64.4947V53.1406H27.183V64.0279Z" fill="#000FF2"/>
<path d="M30.7909 5.875H6.47184C5.85062 5.875 5.34521 6.3769 5.34521 7.00163V18.654C5.34521 19.2752 5.85062 19.7806 6.47184 19.7806H30.7909C31.4122 19.7806 31.9176 19.2752 31.9176 18.654V7.00163C31.9176 6.38041 31.4122 5.875 30.7909 5.875ZM29.6643 17.5274H7.59847V8.12475H29.6643V17.5274Z" fill="#000FF2"/>
<path d="M11.8772 22.0156H6.59147C5.97025 22.0156 5.46484 22.5175 5.46484 23.1423V27.3645C5.46484 27.9857 5.97025 28.4911 6.59147 28.4911H11.8772C12.4984 28.4911 13.0038 27.9857 13.0038 27.3645V23.1423C13.0038 22.521 12.4984 22.0156 11.8772 22.0156ZM10.7505 26.2379H7.7181V24.2689H10.7505V26.2379Z" fill="#000FF2"/>
<path d="M21.2726 22.0156H15.9904C15.3692 22.0156 14.8638 22.5175 14.8638 23.1423V27.3645C14.8638 27.9857 15.3692 28.4911 15.9904 28.4911H21.2726C21.8938 28.4911 22.3992 27.9857 22.3992 27.3645V23.1423C22.3992 22.521 21.8938 22.0156 21.2726 22.0156ZM20.146 26.2379H17.1135V24.2689H20.146V26.2379Z" fill="#000FF2"/>
<path d="M30.6715 22.0156H25.3893C24.7681 22.0156 24.2627 22.5175 24.2627 23.1423V27.3645C24.2627 27.9857 24.7681 28.4911 25.3893 28.4911H30.6715C31.2927 28.4911 31.7981 27.9857 31.7981 27.3645V23.1423C31.7981 22.521 31.2962 22.0156 30.6715 22.0156ZM29.5449 26.2379H26.5124V24.2689H29.5449V26.2379Z" fill="#000FF2"/>
<path d="M11.8772 30.7344H6.59147C5.97025 30.7344 5.46484 31.2398 5.46484 31.861V36.0832C5.46484 36.7045 5.97025 37.2099 6.59147 37.2099H11.8772C12.4984 37.2099 13.0038 36.708 13.0038 36.0832V31.861C13.0038 31.2398 12.4984 30.7344 11.8772 30.7344ZM10.7505 34.9566H7.7181V32.9876H10.7505V34.9566Z" fill="#000FF2"/>
<path d="M21.2726 30.7344H15.9904C15.3692 30.7344 14.8638 31.2398 14.8638 31.861V36.0832C14.8638 36.7045 15.3692 37.2099 15.9904 37.2099H21.2726C21.8938 37.2099 22.3992 36.708 22.3992 36.0832V31.861C22.3992 31.2398 21.8938 30.7344 21.2726 30.7344ZM20.146 34.9566H17.1135V32.9876H20.146V34.9566Z" fill="#000FF2"/>
<path d="M30.6715 30.7344H25.3893C24.7681 30.7344 24.2627 31.2398 24.2627 31.861V36.0832C24.2627 36.7045 24.7681 37.2099 25.3893 37.2099H30.6715C31.2927 37.2099 31.7981 36.708 31.7981 36.0832V31.861C31.7981 31.2398 31.2962 30.7344 30.6715 30.7344ZM29.5449 34.9566H26.5124V32.9876H29.5449V34.9566Z" fill="#000FF2"/>
<path d="M11.8772 39.4453H6.59147C5.97025 39.4453 5.46484 39.9507 5.46484 40.5719V44.7942C5.46484 45.4154 5.97025 45.9208 6.59147 45.9208H11.8772C12.4984 45.9208 13.0038 45.4189 13.0038 44.7942V40.5719C13.0038 39.9507 12.4984 39.4453 11.8772 39.4453ZM10.7505 43.6675H7.7181V41.6986H10.7505V43.6675Z" fill="#000FF2"/>
<path d="M21.2726 39.4453H15.9904C15.3692 39.4453 14.8638 39.9507 14.8638 40.5719V44.7942C14.8638 45.4154 15.3692 45.9208 15.9904 45.9208H21.2726C21.8938 45.9208 22.3992 45.4189 22.3992 44.7942V40.5719C22.3992 39.9507 21.8938 39.4453 21.2726 39.4453ZM20.146 43.6675H17.1135V41.6986H20.146V43.6675Z" fill="#000FF2"/>
<path d="M30.6715 39.4453H25.3893C24.7681 39.4453 24.2627 39.9507 24.2627 40.5719V44.7942C24.2627 45.4154 24.7681 45.9208 25.3893 45.9208H30.6715C31.2927 45.9208 31.7981 45.4189 31.7981 44.7942V40.5719C31.7981 39.9507 31.2962 39.4453 30.6715 39.4453ZM29.5449 43.6675H26.5124V41.6986H29.5449V43.6675Z" fill="#000FF2"/>
<path d="M38.1616 6.42285H37.2911V4.59778C37.2911 2.06374 35.2274 0 32.6934 0H4.59778C2.06374 0 0 2.06374 0 4.59778V47.4168C0 49.9508 2.06374 52.0146 4.59778 52.0146H32.6934C35.2274 52.0146 37.2911 49.9508 37.2911 47.4168V45.5917H38.1616C39.9796 45.5917 41.4537 44.1141 41.4537 42.2996V9.71851C41.4537 7.90046 39.9761 6.42636 38.1616 6.42636V6.42285ZM34.1359 47.4168C34.1359 48.2135 33.4866 48.8593 32.6899 48.8593H4.59427C3.79755 48.8593 3.15176 48.21 3.15176 47.4168V4.59778C3.15176 3.80106 3.80106 3.15527 4.59427 3.15527H32.6899C33.4866 3.15527 34.1359 3.80457 34.1359 4.59778V47.4168ZM39.204 42.2961C39.204 42.8717 38.7372 43.3384 38.1616 43.3384H37.2876V8.67611H38.1581C38.7337 8.67611 39.2005 9.14291 39.2005 9.71851V42.2996L39.204 42.2961Z" fill="#000FF2"/>
<path d="M11.2033 12.7376H26.2987C26.92 12.7376 27.4254 12.2357 27.4254 11.611C27.4254 10.9898 26.92 10.4844 26.2987 10.4844H11.2033C10.5821 10.4844 10.0767 10.9863 10.0767 11.611C10.0767 12.2322 10.5821 12.7376 11.2033 12.7376Z" fill="#000FF2"/>
</svg>
